<svg width="40" height="40" viewBox="0 0 40 40" fill="none" xmlns="http://www.w3.org/2000/svg">
<path fill-rule="evenodd" clip-rule="evenodd" d="M39 20C39 30.4934 30.4934 39 20 39C9.50659 39 1 30.4934 1 20C1 9.50659 9.50659 1 20 1C30.4934 1 39 9.50659 39 20ZM40 20C40 31.0457 31.0457 40 20 40C8.9543 40 0 31.0457 0 20C0 8.9543 8.9543 0 20 0C31.0457 0 40 8.9543 40 20ZM17 28.0075L17.0308 27.9723L17 28L8 18L8.74329 17.331L17.6664 27.2456L31 12L31.7527 12.6583L17.7527 28.6658L17 28.0075Z" fill="white" fill-opacity="0.5"/>
</svg>
